<svg viewBox="0 0 96 96" xmlns="http://www.w3.org/2000/svg" xmlns:xlink="http://www.w3.org/1999/xlink" id="Icons_Brontosaurus" overflow="hidden"><path d="M91 12.86C85.52 12.06 81.35 13.86 79.21 18.29 76.77 23.29 77.92 28.29 79.71 33.54 81 38.23 83 45.78 83 49.5 83 53.75 80.5 57 75.5 56.5 69.5 55.89 63.63 48.5 52.5 48.5 44.5 48.5 41.5 51.5 35.5 56.5 29.5 61.5 23.5 68.5 18.5 69.5 13.5 70.5 10.17 69.58 8.5 66.5 7 63.72 6.5 60.5 8.5 54.5 9.35269 52.0445 10.3546 49.6434 11.5 47.31 11.6649 46.9849 11.535 46.5877 11.21 46.4228 10.9223 46.2769 10.5713 46.3603 10.38 46.62 9.27 48 8.2 49.45 7.5 50.5 5.5 53.5 2.92 58.75 3.5 64.5 4.01 69.57 6.5 72.5 10.5 74.5 14.5 76.5 24.5 77.5 32.5 72.5L33 72.5 33 81C33 82.6569 34.3431 84 36 84 37.6569 84 39 82.6569 39 81L39 72.5 39.14 72.5C44.2919 73.9962 49.6356 74.7273 55 74.67 56.72 74.67 58.39 74.59 60 74.47L60 81C60 82.6569 61.3431 84 63 84 64.6569 84 66 82.6569 66 81L66 73.69C66.69 73.56 67.35 73.42 68 73.27L68 81C68 82.6569 69.3431 84 71 84 72.6569 84 74 82.6569 74 81L74 71.66C77.94 70.53 84.22 68.09 87.5 63.5 91.8 57.5 88.36 46.06 86.5 41.01 85.89 39.01 85.18 37.01 84.5 35.12 82.43 29.41 80.64 24.47 82.8 20 83.3 19 85 16.75 90.35 17.77 91.7151 17.9823 93.0009 17.0689 93.25 15.71 93.351 14.3207 92.3748 13.0842 91 12.86Z" fill="#00B0F0"/><path d="M41 81C41 82.6569 42.3431 84 44 84 45.6569 84 47 82.6569 47 81L47 76.17C44.9806 75.9232 42.9772 75.5592 41 75.08Z" fill="#00B0F0"/></svg>